<mxfile host="app.diagrams.net" agent="Mozilla/5.0 (X11; Linux x86_64) AppleWebKit/537.36 (KHTML, like Gecko) Chrome/136.0.0.0 Safari/537.36" version="27.0.2">
  <diagram name="Page-1" id="ZVD0Zlrxn-nUD54Zjo7Q">
    <mxGraphModel dx="2290" dy="1236" grid="0" gridSize="10" guides="1" tooltips="1" connect="1" arrows="1" fold="1" page="0" pageScale="1" pageWidth="850" pageHeight="1100" math="0" shadow="0">
      <root>
        <mxCell id="0" />
        <mxCell id="1" parent="0" />
        <mxCell id="qEiRsSMY-MSFoVSAuUhn-118" style="edgeStyle=orthogonalEdgeStyle;shape=connector;rounded=0;orthogonalLoop=1;jettySize=auto;html=1;exitX=1;exitY=0.5;exitDx=0;exitDy=0;strokeColor=default;strokeWidth=4;align=center;verticalAlign=middle;fontFamily=Helvetica;fontSize=30;fontColor=default;labelBackgroundColor=default;endArrow=classic;entryX=0.001;entryY=0.478;entryDx=0;entryDy=0;entryPerimeter=0;" parent="1" source="qEiRsSMY-MSFoVSAuUhn-117" target="qEiRsSMY-MSFoVSAuUhn-114" edge="1">
          <mxGeometry relative="1" as="geometry">
            <mxPoint x="595" y="655" as="targetPoint" />
            <Array as="points">
              <mxPoint x="409" y="654" />
            </Array>
          </mxGeometry>
        </mxCell>
        <mxCell id="qEiRsSMY-MSFoVSAuUhn-172" style="edgeStyle=orthogonalEdgeStyle;shape=connector;rounded=0;orthogonalLoop=1;jettySize=auto;html=1;exitX=1;exitY=0.5;exitDx=0;exitDy=0;entryX=0;entryY=0.75;entryDx=0;entryDy=0;strokeColor=default;strokeWidth=4;align=center;verticalAlign=middle;fontFamily=Helvetica;fontSize=30;fontColor=default;labelBackgroundColor=default;endArrow=classic;" parent="1" source="qEiRsSMY-MSFoVSAuUhn-166" target="qEiRsSMY-MSFoVSAuUhn-151" edge="1">
          <mxGeometry relative="1" as="geometry">
            <Array as="points">
              <mxPoint x="104" y="496" />
              <mxPoint x="104" y="49" />
            </Array>
          </mxGeometry>
        </mxCell>
        <mxCell id="qEiRsSMY-MSFoVSAuUhn-173" style="edgeStyle=orthogonalEdgeStyle;shape=connector;rounded=0;orthogonalLoop=1;jettySize=auto;html=1;exitX=1;exitY=0.5;exitDx=0;exitDy=0;entryX=0;entryY=0.25;entryDx=0;entryDy=0;strokeColor=default;strokeWidth=4;align=center;verticalAlign=middle;fontFamily=Helvetica;fontSize=30;fontColor=default;labelBackgroundColor=default;endArrow=classic;" parent="1" source="qEiRsSMY-MSFoVSAuUhn-167" target="qEiRsSMY-MSFoVSAuUhn-151" edge="1">
          <mxGeometry relative="1" as="geometry">
            <Array as="points">
              <mxPoint x="71" y="274" />
              <mxPoint x="71" y="-12" />
            </Array>
          </mxGeometry>
        </mxCell>
        <mxCell id="qEiRsSMY-MSFoVSAuUhn-182" value="" style="group" parent="1" vertex="1" connectable="0">
          <mxGeometry x="259" y="-42" width="322" height="746" as="geometry" />
        </mxCell>
        <mxCell id="qEiRsSMY-MSFoVSAuUhn-14" style="edgeStyle=orthogonalEdgeStyle;shape=connector;rounded=0;orthogonalLoop=1;jettySize=auto;html=1;exitX=0.25;exitY=1;exitDx=0;exitDy=0;entryX=0.25;entryY=0;entryDx=0;entryDy=0;strokeColor=default;strokeWidth=4;align=center;verticalAlign=middle;fontFamily=Helvetica;fontSize=30;fontColor=default;labelBackgroundColor=default;endArrow=classic;movable=1;resizable=1;rotatable=1;deletable=1;editable=1;locked=0;connectable=1;" parent="qEiRsSMY-MSFoVSAuUhn-182" source="qEiRsSMY-MSFoVSAuUhn-3" target="qEiRsSMY-MSFoVSAuUhn-5" edge="1">
          <mxGeometry relative="1" as="geometry" />
        </mxCell>
        <mxCell id="qEiRsSMY-MSFoVSAuUhn-3" value="Camber Calculation" style="rounded=1;whiteSpace=wrap;html=1;strokeColor=#000000;strokeWidth=3;align=center;verticalAlign=middle;fontFamily=Helvetica;fontSize=30;fontColor=default;fillColor=#dae8fc;movable=1;resizable=1;rotatable=1;deletable=1;editable=1;locked=0;connectable=1;" parent="qEiRsSMY-MSFoVSAuUhn-182" vertex="1">
          <mxGeometry y="221" width="201" height="82" as="geometry" />
        </mxCell>
        <mxCell id="qEiRsSMY-MSFoVSAuUhn-5" value="Grip Estimation" style="rounded=1;whiteSpace=wrap;html=1;strokeColor=#000000;strokeWidth=3;align=center;verticalAlign=middle;fontFamily=Helvetica;fontSize=30;fontColor=default;fillColor=#dae8fc;movable=1;resizable=1;rotatable=1;deletable=1;editable=1;locked=0;connectable=1;" parent="qEiRsSMY-MSFoVSAuUhn-182" vertex="1">
          <mxGeometry y="436" width="201" height="82" as="geometry" />
        </mxCell>
        <mxCell id="qEiRsSMY-MSFoVSAuUhn-15" style="edgeStyle=orthogonalEdgeStyle;shape=connector;rounded=0;orthogonalLoop=1;jettySize=auto;html=1;exitX=0.25;exitY=1;exitDx=0;exitDy=0;strokeColor=default;strokeWidth=4;align=center;verticalAlign=middle;fontFamily=Helvetica;fontSize=30;fontColor=default;labelBackgroundColor=default;endArrow=classic;movable=1;resizable=1;rotatable=1;deletable=1;editable=1;locked=0;connectable=1;entryX=0.25;entryY=0;entryDx=0;entryDy=0;" parent="qEiRsSMY-MSFoVSAuUhn-182" source="qEiRsSMY-MSFoVSAuUhn-5" target="qEiRsSMY-MSFoVSAuUhn-117" edge="1">
          <mxGeometry relative="1" as="geometry">
            <mxPoint x="50" y="642" as="targetPoint" />
          </mxGeometry>
        </mxCell>
        <mxCell id="qEiRsSMY-MSFoVSAuUhn-66" value="Camber Calculation" style="rounded=1;whiteSpace=wrap;html=1;strokeColor=#000000;strokeWidth=3;align=center;verticalAlign=middle;fontFamily=Helvetica;fontSize=30;fontColor=default;fillColor=#dae8fc;movable=1;resizable=1;rotatable=1;deletable=1;editable=1;locked=0;connectable=1;" parent="qEiRsSMY-MSFoVSAuUhn-182" vertex="1">
          <mxGeometry x="10" y="231" width="201" height="82" as="geometry" />
        </mxCell>
        <mxCell id="qEiRsSMY-MSFoVSAuUhn-67" value="Grip Estimation" style="rounded=1;whiteSpace=wrap;html=1;strokeColor=#000000;strokeWidth=3;align=center;verticalAlign=middle;fontFamily=Helvetica;fontSize=30;fontColor=default;fillColor=#dae8fc;movable=1;resizable=1;rotatable=1;deletable=1;editable=1;locked=0;connectable=1;" parent="qEiRsSMY-MSFoVSAuUhn-182" vertex="1">
          <mxGeometry x="10" y="446" width="201" height="82" as="geometry" />
        </mxCell>
        <mxCell id="qEiRsSMY-MSFoVSAuUhn-74" value="Camber Calculation" style="rounded=1;whiteSpace=wrap;html=1;strokeColor=#000000;strokeWidth=3;align=center;verticalAlign=middle;fontFamily=Helvetica;fontSize=30;fontColor=default;fillColor=#dae8fc;movable=1;resizable=1;rotatable=1;deletable=1;editable=1;locked=0;connectable=1;" parent="qEiRsSMY-MSFoVSAuUhn-182" vertex="1">
          <mxGeometry x="20" y="241" width="201" height="82" as="geometry" />
        </mxCell>
        <mxCell id="qEiRsSMY-MSFoVSAuUhn-75" value="Grip Estimation" style="rounded=1;whiteSpace=wrap;html=1;strokeColor=#000000;strokeWidth=3;align=center;verticalAlign=middle;fontFamily=Helvetica;fontSize=30;fontColor=default;fillColor=#dae8fc;movable=1;resizable=1;rotatable=1;deletable=1;editable=1;locked=0;connectable=1;" parent="qEiRsSMY-MSFoVSAuUhn-182" vertex="1">
          <mxGeometry x="20" y="456" width="201" height="82" as="geometry" />
        </mxCell>
        <mxCell id="qEiRsSMY-MSFoVSAuUhn-106" value="Camber Angles" style="text;html=1;align=center;verticalAlign=middle;whiteSpace=wrap;rounded=0;fontFamily=Helvetica;fontSize=30;fontColor=default;labelBackgroundColor=none;" parent="qEiRsSMY-MSFoVSAuUhn-182" vertex="1">
          <mxGeometry x="105" y="365" width="60" height="30" as="geometry" />
        </mxCell>
        <mxCell id="qEiRsSMY-MSFoVSAuUhn-107" value="&lt;span style=&quot;&quot;&gt;New Friction&amp;nbsp;&lt;/span&gt;&lt;div&gt;Coefficients&lt;/div&gt;" style="text;html=1;align=center;verticalAlign=middle;whiteSpace=wrap;rounded=0;fontFamily=Helvetica;fontSize=30;fontColor=default;labelBackgroundColor=none;" parent="qEiRsSMY-MSFoVSAuUhn-182" vertex="1">
          <mxGeometry x="70" y="576" width="184" height="30" as="geometry" />
        </mxCell>
        <mxCell id="qEiRsSMY-MSFoVSAuUhn-105" value="N" style="text;html=1;align=center;verticalAlign=middle;whiteSpace=wrap;rounded=0;fontFamily=Helvetica;fontSize=30;fontColor=default;labelBackgroundColor=default;container=0;" parent="qEiRsSMY-MSFoVSAuUhn-182" vertex="1">
          <mxGeometry x="262" y="272.5" width="60" height="30" as="geometry" />
        </mxCell>
        <mxCell id="qEiRsSMY-MSFoVSAuUhn-117" value="Friction Data" style="rounded=1;whiteSpace=wrap;html=1;strokeColor=#000000;strokeWidth=5;align=center;verticalAlign=middle;fontFamily=Helvetica;fontSize=30;fillColor=#e1d5e7;" parent="qEiRsSMY-MSFoVSAuUhn-182" vertex="1">
          <mxGeometry y="644" width="202" height="82" as="geometry" />
        </mxCell>
        <mxCell id="qEiRsSMY-MSFoVSAuUhn-126" value="Friction Data" style="rounded=1;whiteSpace=wrap;html=1;strokeColor=#000000;strokeWidth=5;align=center;verticalAlign=middle;fontFamily=Helvetica;fontSize=30;fillColor=#e1d5e7;" parent="qEiRsSMY-MSFoVSAuUhn-182" vertex="1">
          <mxGeometry x="10" y="654" width="202" height="82" as="geometry" />
        </mxCell>
        <mxCell id="qEiRsSMY-MSFoVSAuUhn-127" value="Friction Data" style="rounded=1;whiteSpace=wrap;html=1;strokeColor=#000000;strokeWidth=5;align=center;verticalAlign=middle;fontFamily=Helvetica;fontSize=30;fillColor=#e1d5e7;" parent="qEiRsSMY-MSFoVSAuUhn-182" vertex="1">
          <mxGeometry x="20" y="664" width="202" height="82" as="geometry" />
        </mxCell>
        <mxCell id="qEiRsSMY-MSFoVSAuUhn-155" style="edgeStyle=orthogonalEdgeStyle;shape=connector;rounded=0;orthogonalLoop=1;jettySize=auto;html=1;exitX=0.25;exitY=1;exitDx=0;exitDy=0;entryX=0.25;entryY=0;entryDx=0;entryDy=0;strokeColor=default;strokeWidth=4;align=center;verticalAlign=middle;fontFamily=Helvetica;fontSize=30;fontColor=default;labelBackgroundColor=default;endArrow=classic;" parent="qEiRsSMY-MSFoVSAuUhn-182" source="qEiRsSMY-MSFoVSAuUhn-151" target="qEiRsSMY-MSFoVSAuUhn-3" edge="1">
          <mxGeometry relative="1" as="geometry" />
        </mxCell>
        <mxCell id="qEiRsSMY-MSFoVSAuUhn-151" value="Execute Racing Line" style="rounded=1;whiteSpace=wrap;html=1;strokeColor=#000000;strokeWidth=5;align=center;verticalAlign=middle;fontFamily=Helvetica;fontSize=30;fillColor=#FFFF99;movable=1;resizable=1;rotatable=1;deletable=1;editable=1;locked=0;connectable=1;" parent="qEiRsSMY-MSFoVSAuUhn-182" vertex="1">
          <mxGeometry width="201" height="121" as="geometry" />
        </mxCell>
        <mxCell id="qEiRsSMY-MSFoVSAuUhn-154" value="" style="shape=curlyBracket;whiteSpace=wrap;html=1;rounded=1;flipH=1;labelPosition=right;verticalLabelPosition=middle;align=left;verticalAlign=middle;strokeColor=#000000;strokeWidth=5;fontFamily=Helvetica;fontSize=30;fontColor=default;labelBackgroundColor=default;fillColor=#dae8fc;" parent="qEiRsSMY-MSFoVSAuUhn-182" vertex="1">
          <mxGeometry x="237" y="77" width="32" height="421" as="geometry" />
        </mxCell>
        <mxCell id="qEiRsSMY-MSFoVSAuUhn-156" value="Execute Racing Line" style="rounded=1;whiteSpace=wrap;html=1;strokeColor=#000000;strokeWidth=5;align=center;verticalAlign=middle;fontFamily=Helvetica;fontSize=30;fillColor=#FFFF99;movable=1;resizable=1;rotatable=1;deletable=1;editable=1;locked=0;connectable=1;" parent="qEiRsSMY-MSFoVSAuUhn-182" vertex="1">
          <mxGeometry x="10" y="10" width="201" height="121" as="geometry" />
        </mxCell>
        <mxCell id="qEiRsSMY-MSFoVSAuUhn-157" value="Execute Racing Line" style="rounded=1;whiteSpace=wrap;html=1;strokeColor=#000000;strokeWidth=5;align=center;verticalAlign=middle;fontFamily=Helvetica;fontSize=30;fillColor=#FFFF99;movable=1;resizable=1;rotatable=1;deletable=1;editable=1;locked=0;connectable=1;" parent="qEiRsSMY-MSFoVSAuUhn-182" vertex="1">
          <mxGeometry x="20" y="20" width="201" height="121" as="geometry" />
        </mxCell>
        <mxCell id="qEiRsSMY-MSFoVSAuUhn-183" value="" style="group" parent="1" vertex="1" connectable="0">
          <mxGeometry x="792" y="-42" width="516.5" height="753" as="geometry" />
        </mxCell>
        <mxCell id="qEiRsSMY-MSFoVSAuUhn-131" style="edgeStyle=orthogonalEdgeStyle;shape=connector;rounded=0;orthogonalLoop=1;jettySize=auto;html=1;exitX=0.78;exitY=-0.006;exitDx=0;exitDy=0;entryX=0.5;entryY=1;entryDx=0;entryDy=0;strokeColor=default;strokeWidth=4;align=center;verticalAlign=middle;fontFamily=Helvetica;fontSize=30;fontColor=default;labelBackgroundColor=default;endArrow=classic;exitPerimeter=0;" parent="qEiRsSMY-MSFoVSAuUhn-183" source="qEiRsSMY-MSFoVSAuUhn-114" target="qEiRsSMY-MSFoVSAuUhn-130" edge="1">
          <mxGeometry relative="1" as="geometry" />
        </mxCell>
        <mxCell id="qEiRsSMY-MSFoVSAuUhn-114" value="Friction Map&lt;div&gt;(Only use recent N friction data)&lt;/div&gt;" style="rounded=1;whiteSpace=wrap;html=1;strokeColor=#000000;strokeWidth=5;align=center;verticalAlign=middle;fontFamily=Helvetica;fontSize=30;fillColor=#f8cecc;" parent="qEiRsSMY-MSFoVSAuUhn-183" vertex="1">
          <mxGeometry y="643" width="473.5" height="110" as="geometry" />
        </mxCell>
        <mxCell id="qEiRsSMY-MSFoVSAuUhn-132" style="edgeStyle=orthogonalEdgeStyle;shape=connector;rounded=0;orthogonalLoop=1;jettySize=auto;html=1;exitX=1;exitY=0.5;exitDx=0;exitDy=0;entryX=0;entryY=0.5;entryDx=0;entryDy=0;strokeColor=default;strokeWidth=4;align=center;verticalAlign=middle;fontFamily=Helvetica;fontSize=30;fontColor=default;labelBackgroundColor=default;endArrow=classic;" parent="qEiRsSMY-MSFoVSAuUhn-183" source="qEiRsSMY-MSFoVSAuUhn-120" target="qEiRsSMY-MSFoVSAuUhn-130" edge="1">
          <mxGeometry relative="1" as="geometry" />
        </mxCell>
        <mxCell id="qEiRsSMY-MSFoVSAuUhn-120" value="Generate Optimized Racing Line" style="rounded=1;whiteSpace=wrap;html=1;strokeColor=#000000;strokeWidth=3;align=center;verticalAlign=middle;fontFamily=Helvetica;fontSize=30;fillColor=#fff2cc;movable=1;resizable=1;rotatable=1;deletable=1;editable=1;locked=0;connectable=1;" parent="qEiRsSMY-MSFoVSAuUhn-183" vertex="1">
          <mxGeometry y="455" width="201" height="121" as="geometry" />
        </mxCell>
        <mxCell id="qEiRsSMY-MSFoVSAuUhn-128" value="" style="endArrow=classic;html=1;rounded=0;strokeColor=default;strokeWidth=4;align=center;verticalAlign=middle;fontFamily=Helvetica;fontSize=30;fontColor=default;labelBackgroundColor=default;exitX=0.213;exitY=-0.009;exitDx=0;exitDy=0;exitPerimeter=0;entryX=0.5;entryY=1;entryDx=0;entryDy=0;" parent="qEiRsSMY-MSFoVSAuUhn-183" source="qEiRsSMY-MSFoVSAuUhn-114" target="qEiRsSMY-MSFoVSAuUhn-120" edge="1">
          <mxGeometry width="50" height="50" relative="1" as="geometry">
            <mxPoint x="246.5" y="596" as="sourcePoint" />
            <mxPoint x="296.5" y="546" as="targetPoint" />
          </mxGeometry>
        </mxCell>
        <mxCell id="qEiRsSMY-MSFoVSAuUhn-130" value="Generate Velocity&lt;div&gt;Profile&lt;/div&gt;" style="rounded=1;whiteSpace=wrap;html=1;strokeColor=#000000;strokeWidth=3;align=center;verticalAlign=middle;fontFamily=Helvetica;fontSize=30;fillColor=#FFCCE6;movable=1;resizable=1;rotatable=1;deletable=1;editable=1;locked=0;connectable=1;" parent="qEiRsSMY-MSFoVSAuUhn-183" vertex="1">
          <mxGeometry x="269.25" y="454.5" width="201" height="121" as="geometry" />
        </mxCell>
        <mxCell id="qEiRsSMY-MSFoVSAuUhn-137" value="Execute Racing Line" style="rounded=1;whiteSpace=wrap;html=1;strokeColor=#000000;strokeWidth=5;align=center;verticalAlign=middle;fontFamily=Helvetica;fontSize=30;fillColor=#FFFF99;" parent="qEiRsSMY-MSFoVSAuUhn-183" vertex="1">
          <mxGeometry y="302.25" width="473.5" height="82" as="geometry" />
        </mxCell>
        <mxCell id="qEiRsSMY-MSFoVSAuUhn-138" style="edgeStyle=orthogonalEdgeStyle;shape=connector;rounded=0;orthogonalLoop=1;jettySize=auto;html=1;exitX=0.5;exitY=0;exitDx=0;exitDy=0;entryX=0.214;entryY=1.006;entryDx=0;entryDy=0;entryPerimeter=0;strokeColor=default;strokeWidth=4;align=center;verticalAlign=middle;fontFamily=Helvetica;fontSize=30;fontColor=default;labelBackgroundColor=default;endArrow=classic;" parent="qEiRsSMY-MSFoVSAuUhn-183" source="qEiRsSMY-MSFoVSAuUhn-120" target="qEiRsSMY-MSFoVSAuUhn-137" edge="1">
          <mxGeometry relative="1" as="geometry" />
        </mxCell>
        <mxCell id="qEiRsSMY-MSFoVSAuUhn-139" style="edgeStyle=orthogonalEdgeStyle;shape=connector;rounded=0;orthogonalLoop=1;jettySize=auto;html=1;exitX=0.5;exitY=0;exitDx=0;exitDy=0;entryX=0.782;entryY=1.006;entryDx=0;entryDy=0;entryPerimeter=0;strokeColor=default;strokeWidth=4;align=center;verticalAlign=middle;fontFamily=Helvetica;fontSize=30;fontColor=default;labelBackgroundColor=default;endArrow=classic;" parent="qEiRsSMY-MSFoVSAuUhn-183" source="qEiRsSMY-MSFoVSAuUhn-130" target="qEiRsSMY-MSFoVSAuUhn-137" edge="1">
          <mxGeometry relative="1" as="geometry" />
        </mxCell>
        <mxCell id="qEiRsSMY-MSFoVSAuUhn-145" style="edgeStyle=orthogonalEdgeStyle;shape=connector;rounded=0;orthogonalLoop=1;jettySize=auto;html=1;exitX=0.5;exitY=0;exitDx=0;exitDy=0;entryX=0.5;entryY=1;entryDx=0;entryDy=0;strokeColor=default;strokeWidth=4;align=center;verticalAlign=middle;fontFamily=Helvetica;fontSize=30;fontColor=default;labelBackgroundColor=default;endArrow=classic;" parent="qEiRsSMY-MSFoVSAuUhn-183" source="qEiRsSMY-MSFoVSAuUhn-140" target="qEiRsSMY-MSFoVSAuUhn-141" edge="1">
          <mxGeometry relative="1" as="geometry" />
        </mxCell>
        <mxCell id="qEiRsSMY-MSFoVSAuUhn-140" value="Camber Calculation" style="rounded=1;whiteSpace=wrap;html=1;strokeColor=#000000;strokeWidth=3;align=center;verticalAlign=middle;fontFamily=Helvetica;fontSize=30;fontColor=default;fillColor=#dae8fc;movable=1;resizable=1;rotatable=1;deletable=1;editable=1;locked=0;connectable=1;" parent="qEiRsSMY-MSFoVSAuUhn-183" vertex="1">
          <mxGeometry y="154" width="201" height="82" as="geometry" />
        </mxCell>
        <mxCell id="qEiRsSMY-MSFoVSAuUhn-141" value="Grip Estimation" style="rounded=1;whiteSpace=wrap;html=1;strokeColor=#000000;strokeWidth=3;align=center;verticalAlign=middle;fontFamily=Helvetica;fontSize=30;fontColor=default;fillColor=#dae8fc;movable=1;resizable=1;rotatable=1;deletable=1;editable=1;locked=0;connectable=1;" parent="qEiRsSMY-MSFoVSAuUhn-183" vertex="1">
          <mxGeometry width="201" height="82" as="geometry" />
        </mxCell>
        <mxCell id="qEiRsSMY-MSFoVSAuUhn-142" style="edgeStyle=orthogonalEdgeStyle;shape=connector;rounded=0;orthogonalLoop=1;jettySize=auto;html=1;exitX=0.213;exitY=0;exitDx=0;exitDy=0;entryX=0.5;entryY=1;entryDx=0;entryDy=0;strokeColor=default;strokeWidth=4;align=center;verticalAlign=middle;fontFamily=Helvetica;fontSize=30;fontColor=default;labelBackgroundColor=default;endArrow=classic;exitPerimeter=0;" parent="qEiRsSMY-MSFoVSAuUhn-183" source="qEiRsSMY-MSFoVSAuUhn-137" target="qEiRsSMY-MSFoVSAuUhn-140" edge="1">
          <mxGeometry relative="1" as="geometry">
            <mxPoint x="99.75" y="242" as="sourcePoint" />
            <mxPoint x="100.75" y="128" as="targetPoint" />
          </mxGeometry>
        </mxCell>
        <mxCell id="qEiRsSMY-MSFoVSAuUhn-148" style="edgeStyle=orthogonalEdgeStyle;shape=connector;rounded=0;orthogonalLoop=1;jettySize=auto;html=1;exitX=1;exitY=0.5;exitDx=0;exitDy=0;entryX=1;entryY=0.5;entryDx=0;entryDy=0;strokeColor=default;strokeWidth=4;align=center;verticalAlign=middle;fontFamily=Helvetica;fontSize=30;fontColor=default;labelBackgroundColor=default;endArrow=classic;" parent="qEiRsSMY-MSFoVSAuUhn-183" source="qEiRsSMY-MSFoVSAuUhn-146" target="qEiRsSMY-MSFoVSAuUhn-114" edge="1">
          <mxGeometry relative="1" as="geometry">
            <Array as="points">
              <mxPoint x="516.5" y="118" />
              <mxPoint x="516.5" y="698" />
            </Array>
          </mxGeometry>
        </mxCell>
        <mxCell id="qEiRsSMY-MSFoVSAuUhn-146" value="Friction Data" style="rounded=1;whiteSpace=wrap;html=1;strokeColor=#000000;strokeWidth=5;align=center;verticalAlign=middle;fontFamily=Helvetica;fontSize=30;fillColor=#e1d5e7;" parent="qEiRsSMY-MSFoVSAuUhn-183" vertex="1">
          <mxGeometry x="271.5" width="202" height="236" as="geometry" />
        </mxCell>
        <mxCell id="qEiRsSMY-MSFoVSAuUhn-147" style="edgeStyle=orthogonalEdgeStyle;shape=connector;rounded=0;orthogonalLoop=1;jettySize=auto;html=1;exitX=1;exitY=0.5;exitDx=0;exitDy=0;entryX=0.01;entryY=0.176;entryDx=0;entryDy=0;entryPerimeter=0;strokeColor=default;strokeWidth=4;align=center;verticalAlign=middle;fontFamily=Helvetica;fontSize=30;fontColor=default;labelBackgroundColor=default;endArrow=classic;" parent="qEiRsSMY-MSFoVSAuUhn-183" source="qEiRsSMY-MSFoVSAuUhn-141" target="qEiRsSMY-MSFoVSAuUhn-146" edge="1">
          <mxGeometry relative="1" as="geometry" />
        </mxCell>
        <mxCell id="qEiRsSMY-MSFoVSAuUhn-207" value="" style="group" parent="1" vertex="1" connectable="0">
          <mxGeometry x="-598" y="-42" width="616" height="619" as="geometry" />
        </mxCell>
        <mxCell id="qEiRsSMY-MSFoVSAuUhn-159" value="Initial&lt;div&gt;Friction Map&lt;/div&gt;" style="rounded=1;whiteSpace=wrap;html=1;strokeColor=#000000;strokeWidth=3;align=center;verticalAlign=middle;fontFamily=Helvetica;fontSize=30;fillColor=#f5f5f5;movable=1;resizable=1;rotatable=1;deletable=1;editable=1;locked=0;connectable=1;fontColor=#333333;container=0;" parent="qEiRsSMY-MSFoVSAuUhn-207" vertex="1">
          <mxGeometry x="394" width="202" height="139" as="geometry" />
        </mxCell>
        <mxCell id="qEiRsSMY-MSFoVSAuUhn-160" value="Track Map" style="rounded=1;whiteSpace=wrap;html=1;strokeColor=#000000;strokeWidth=3;align=center;verticalAlign=middle;fontFamily=Helvetica;fontSize=30;fillColor=#f5f5f5;movable=1;resizable=1;rotatable=1;deletable=1;editable=1;locked=0;connectable=1;fontColor=#333333;container=0;" parent="qEiRsSMY-MSFoVSAuUhn-207" vertex="1">
          <mxGeometry x="114" width="202" height="139" as="geometry" />
        </mxCell>
        <mxCell id="qEiRsSMY-MSFoVSAuUhn-166" value="Generate Velocity&lt;div&gt;Profile&lt;/div&gt;" style="rounded=1;whiteSpace=wrap;html=1;strokeColor=#000000;strokeWidth=3;align=center;verticalAlign=middle;fontFamily=Helvetica;fontSize=30;fillColor=#FFCCE6;movable=1;resizable=1;rotatable=1;deletable=1;editable=1;locked=0;connectable=1;container=0;" parent="qEiRsSMY-MSFoVSAuUhn-207" vertex="1">
          <mxGeometry x="117" y="478" width="479" height="121" as="geometry" />
        </mxCell>
        <mxCell id="qEiRsSMY-MSFoVSAuUhn-171" style="edgeStyle=orthogonalEdgeStyle;shape=connector;rounded=0;orthogonalLoop=1;jettySize=auto;html=1;exitX=0.5;exitY=1;exitDx=0;exitDy=0;strokeColor=default;strokeWidth=4;align=center;verticalAlign=middle;fontFamily=Helvetica;fontSize=30;fontColor=default;labelBackgroundColor=default;endArrow=classic;" parent="qEiRsSMY-MSFoVSAuUhn-207" source="qEiRsSMY-MSFoVSAuUhn-167" target="qEiRsSMY-MSFoVSAuUhn-166" edge="1">
          <mxGeometry relative="1" as="geometry" />
        </mxCell>
        <mxCell id="qEiRsSMY-MSFoVSAuUhn-167" value="Generate Exploration Lab" style="rounded=1;whiteSpace=wrap;html=1;strokeColor=#000000;strokeWidth=3;align=center;verticalAlign=middle;fontFamily=Helvetica;fontSize=30;fillColor=#d5e8d4;movable=1;resizable=1;rotatable=1;deletable=1;editable=1;locked=0;connectable=1;container=0;" parent="qEiRsSMY-MSFoVSAuUhn-207" vertex="1">
          <mxGeometry x="117" y="255" width="479" height="121" as="geometry" />
        </mxCell>
        <mxCell id="qEiRsSMY-MSFoVSAuUhn-168" style="edgeStyle=orthogonalEdgeStyle;shape=connector;rounded=0;orthogonalLoop=1;jettySize=auto;html=1;exitX=0.5;exitY=1;exitDx=0;exitDy=0;strokeColor=default;strokeWidth=4;align=center;verticalAlign=middle;fontFamily=Helvetica;fontSize=30;fontColor=default;labelBackgroundColor=default;endArrow=classic;" parent="qEiRsSMY-MSFoVSAuUhn-207" source="qEiRsSMY-MSFoVSAuUhn-160" edge="1">
          <mxGeometry relative="1" as="geometry">
            <mxPoint x="215" y="254" as="targetPoint" />
          </mxGeometry>
        </mxCell>
        <mxCell id="qEiRsSMY-MSFoVSAuUhn-169" style="edgeStyle=orthogonalEdgeStyle;shape=connector;rounded=0;orthogonalLoop=1;jettySize=auto;html=1;exitX=0.5;exitY=1;exitDx=0;exitDy=0;strokeColor=default;strokeWidth=4;align=center;verticalAlign=middle;fontFamily=Helvetica;fontSize=30;fontColor=default;labelBackgroundColor=default;endArrow=classic;" parent="qEiRsSMY-MSFoVSAuUhn-207" source="qEiRsSMY-MSFoVSAuUhn-159" edge="1">
          <mxGeometry relative="1" as="geometry">
            <mxPoint x="495" y="253" as="targetPoint" />
          </mxGeometry>
        </mxCell>
        <mxCell id="qEiRsSMY-MSFoVSAuUhn-174" value="Generate Velocity&lt;div&gt;Profile&lt;/div&gt;" style="rounded=1;whiteSpace=wrap;html=1;strokeColor=#000000;strokeWidth=3;align=center;verticalAlign=middle;fontFamily=Helvetica;fontSize=30;fillColor=#FFCCE6;movable=1;resizable=1;rotatable=1;deletable=1;editable=1;locked=0;connectable=1;container=0;" parent="qEiRsSMY-MSFoVSAuUhn-207" vertex="1">
          <mxGeometry x="127" y="488" width="479" height="121" as="geometry" />
        </mxCell>
        <mxCell id="qEiRsSMY-MSFoVSAuUhn-176" value="Generate Exploration Lab" style="rounded=1;whiteSpace=wrap;html=1;strokeColor=#000000;strokeWidth=3;align=center;verticalAlign=middle;fontFamily=Helvetica;fontSize=30;fillColor=#d5e8d4;movable=1;resizable=1;rotatable=1;deletable=1;editable=1;locked=0;connectable=1;container=0;" parent="qEiRsSMY-MSFoVSAuUhn-207" vertex="1">
          <mxGeometry x="127" y="265" width="479" height="121" as="geometry" />
        </mxCell>
        <mxCell id="qEiRsSMY-MSFoVSAuUhn-177" value="Generate Velocity&lt;div&gt;Profile&lt;/div&gt;" style="rounded=1;whiteSpace=wrap;html=1;strokeColor=#000000;strokeWidth=3;align=center;verticalAlign=middle;fontFamily=Helvetica;fontSize=30;fillColor=#FFCCE6;movable=1;resizable=1;rotatable=1;deletable=1;editable=1;locked=0;connectable=1;container=0;" parent="qEiRsSMY-MSFoVSAuUhn-207" vertex="1">
          <mxGeometry x="137" y="498" width="479" height="121" as="geometry" />
        </mxCell>
        <mxCell id="qEiRsSMY-MSFoVSAuUhn-179" value="Generate Exploration Lap" style="rounded=1;whiteSpace=wrap;html=1;strokeColor=#000000;strokeWidth=3;align=center;verticalAlign=middle;fontFamily=Helvetica;fontSize=30;fillColor=#d5e8d4;movable=1;resizable=1;rotatable=1;deletable=1;editable=1;locked=0;connectable=1;container=0;" parent="qEiRsSMY-MSFoVSAuUhn-207" vertex="1">
          <mxGeometry x="137" y="275" width="479" height="121" as="geometry" />
        </mxCell>
        <mxCell id="qEiRsSMY-MSFoVSAuUhn-185" value="" style="shape=curlyBracket;whiteSpace=wrap;html=1;rounded=1;labelPosition=left;verticalLabelPosition=middle;align=right;verticalAlign=middle;strokeColor=#000000;strokeWidth=5;fontFamily=Helvetica;fontSize=30;fontColor=default;labelBackgroundColor=default;fillColor=#dae8fc;" parent="qEiRsSMY-MSFoVSAuUhn-207" vertex="1">
          <mxGeometry x="46" y="306" width="51" height="246" as="geometry" />
        </mxCell>
        <mxCell id="qEiRsSMY-MSFoVSAuUhn-206" value="N" style="text;html=1;align=center;verticalAlign=middle;whiteSpace=wrap;rounded=0;fontFamily=Helvetica;fontSize=30;fontColor=default;labelBackgroundColor=default;container=0;" parent="qEiRsSMY-MSFoVSAuUhn-207" vertex="1">
          <mxGeometry y="414" width="60" height="30" as="geometry" />
        </mxCell>
        <mxCell id="qEiRsSMY-MSFoVSAuUhn-208" value="" style="swimlane;startSize=0;rounded=0;strokeColor=#000000;strokeWidth=3;align=center;verticalAlign=middle;fontFamily=Helvetica;fontSize=30;fontColor=default;labelBackgroundColor=default;fillColor=#dae8fc;dashed=1;dashPattern=8 8;" parent="1" vertex="1">
          <mxGeometry x="-598" y="-169" width="731" height="940" as="geometry" />
        </mxCell>
        <mxCell id="qEiRsSMY-MSFoVSAuUhn-209" value="&lt;b&gt;&lt;font style=&quot;font-size: 33px;&quot;&gt;Initial Racing Line Planning&lt;/font&gt;&lt;/b&gt;" style="text;html=1;align=center;verticalAlign=middle;whiteSpace=wrap;rounded=0;fontFamily=Helvetica;fontSize=30;fontColor=default;labelBackgroundColor=none;" parent="qEiRsSMY-MSFoVSAuUhn-208" vertex="1">
          <mxGeometry x="3.5" y="18" width="724" height="49" as="geometry" />
        </mxCell>
        <mxCell id="qEiRsSMY-MSFoVSAuUhn-210" value="" style="swimlane;startSize=0;rounded=0;strokeColor=#000000;strokeWidth=3;align=center;verticalAlign=middle;fontFamily=Helvetica;fontSize=30;fontColor=default;labelBackgroundColor=default;fillColor=#dae8fc;dashed=1;dashPattern=8 8;" parent="1" vertex="1">
          <mxGeometry x="133" y="-169" width="505" height="941" as="geometry" />
        </mxCell>
        <mxCell id="qEiRsSMY-MSFoVSAuUhn-212" value="&lt;span style=&quot;font-size: 33px;&quot;&gt;&lt;b&gt;Learn New Environments&lt;/b&gt;&lt;/span&gt;" style="text;html=1;align=center;verticalAlign=middle;whiteSpace=wrap;rounded=0;fontFamily=Helvetica;fontSize=30;fontColor=default;labelBackgroundColor=none;" parent="qEiRsSMY-MSFoVSAuUhn-210" vertex="1">
          <mxGeometry x="3" y="18" width="505" height="49" as="geometry" />
        </mxCell>
        <mxCell id="qEiRsSMY-MSFoVSAuUhn-213" value="" style="swimlane;startSize=0;rounded=0;strokeColor=#000000;strokeWidth=3;align=center;verticalAlign=middle;fontFamily=Helvetica;fontSize=30;fontColor=default;labelBackgroundColor=default;fillColor=#dae8fc;dashed=1;dashPattern=8 8;" parent="1" vertex="1">
          <mxGeometry x="638" y="-169" width="746" height="941" as="geometry" />
        </mxCell>
        <mxCell id="qEiRsSMY-MSFoVSAuUhn-214" value="&lt;span style=&quot;font-size: 33px;&quot;&gt;&lt;b&gt;Continuous Optimization&lt;/b&gt;&lt;/span&gt;" style="text;html=1;align=center;verticalAlign=middle;whiteSpace=wrap;rounded=0;fontFamily=Helvetica;fontSize=30;fontColor=default;labelBackgroundColor=none;" parent="qEiRsSMY-MSFoVSAuUhn-213" vertex="1">
          <mxGeometry y="18" width="746" height="49" as="geometry" />
        </mxCell>
      </root>
    </mxGraphModel>
  </diagram>
</mxfile>
